# xmcd
#
# Track frame offsets:
#	150
#	10802
#	15864
#	38319
#	53951
#	89445
#	103190
#	134295
#	156202
#	191968
#	217643
#	243007
#	263058
#	282676
#
# Disc length: 4327 seconds
#
# Revision: 1
# Processed by: cddbd v1.5.2PL0 Copyright (c) Steve Scherf et al.
# Submitted via: EasyCDDAExtractor 10.0.6.1
#
DISCID=b210e50e
DTITLE=Stratovarius - The Best of [CD 2)
DYEAR=2002
DGENRE=Rock and Roll
TTITLE0=Metal Frenzy
TTITLE1=Atlantis
TTITLE2=Abyss
TTITLE3=Shatterred
TTITLE4=We Hold The Key
TTITLE5=Speed Of Light
TTITLE6=Season Of Change
TTITLE7=Stratosphere
TTITLE8=Night Time Eclipse
TTITLE9=Legions
TTITLE10=The Abyss Of Your Eyes
TTITLE11=Paradise
TTITLE12=No Turning Back
TTITLE13=Infinity
EXTD=
EXTT0=
EXTT1=
EXTT2=
EXTT3=
EXTT4=
EXTT5=
EXTT6=
EXTT7=
EXTT8=
EXTT9=
EXTT10=
EXTT11=
EXTT12=
EXTT13=
PLAYORDER=
